<?xml version="1.0" encoding="utf-8"?>
<!-- Generator: Adobe Illustrator 22.0.1, SVG Export Plug-In . SVG Version: 6.00 Build 0)  -->
<svg version="1.1" id="Layer_1" xmlns="http://www.w3.org/2000/svg" xmlns:xlink="http://www.w3.org/1999/xlink" x="0px" y="0px"
	 viewBox="0 0 2400 1600" style="enable-background:new 0 0 2400 1600;" xml:space="preserve">
<style type="text/css">
	.st0{filter:url(#Adobe_OpacityMaskFilter);}
	.st1{fill:url(#SVGID_2_);}
	.st2{mask:url(#SVGID_1_);fill:url(#SVGID_3_);}
	.st3{fill:#72D4DE;}
	.st4{fill:#77F2C0;}
</style>
<defs>
	<filter id="Adobe_OpacityMaskFilter" filterUnits="userSpaceOnUse" x="583" y="953.5" width="245" height="245">
		
			<feColorMatrix  type="matrix" values="-1 0 0 0 1  0 -1 0 0 1  0 0 -1 0 1  0 0 0 1 0" color-interpolation-filters="sRGB" result="source"/>
	</filter>
</defs>
<mask maskUnits="userSpaceOnUse" x="583" y="953.5" width="245" height="245" id="SVGID_1_">
	<g class="st0">
		<linearGradient id="SVGID_2_" gradientUnits="userSpaceOnUse" x1="828" y1="1076" x2="583" y2="1076">
			<stop  offset="0" style="stop-color:#FFFFFF"/>
			<stop  offset="7.380247e-03" style="stop-color:#F6F6F6"/>
			<stop  offset="4.767627e-02" style="stop-color:#C8C8C8"/>
			<stop  offset="9.308982e-02" style="stop-color:#9D9D9D"/>
			<stop  offset="0.1419" style="stop-color:#777777"/>
			<stop  offset="0.195" style="stop-color:#575757"/>
			<stop  offset="0.2537" style="stop-color:#3B3B3B"/>
			<stop  offset="0.32" style="stop-color:#252525"/>
			<stop  offset="0.3974" style="stop-color:#141414"/>
			<stop  offset="0.4931" style="stop-color:#090909"/>
			<stop  offset="0.6274" style="stop-color:#020202"/>
			<stop  offset="1" style="stop-color:#000000"/>
		</linearGradient>
		<path class="st1" d="M705.5,1198.5L705.5,1198.5c-67.7,0-122.5-54.8-122.5-122.5v0c0-67.7,54.8-122.5,122.5-122.5h0
			c67.7,0,122.5,54.8,122.5,122.5v0C828,1143.7,773.2,1198.5,705.5,1198.5z"/>
	</g>
</mask>
<linearGradient id="SVGID_3_" gradientUnits="userSpaceOnUse" x1="633.7927" y1="1004.2927" x2="786.2228" y2="1156.7228">
	<stop  offset="0" style="stop-color:#84E900"/>
	<stop  offset="0.1573" style="stop-color:#85E902"/>
	<stop  offset="0.2492" style="stop-color:#8AE90B"/>
	<stop  offset="0.3243" style="stop-color:#91E819"/>
	<stop  offset="0.3903" style="stop-color:#9BE72D"/>
	<stop  offset="0.4497" style="stop-color:#A8E646"/>
	<stop  offset="0.4605" style="stop-color:#ABE64C"/>
	<stop  offset="0.5131" style="stop-color:#7CE156"/>
	<stop  offset="0.6016" style="stop-color:#25D768"/>
	<stop  offset="0.6162" style="stop-color:#21D664"/>
	<stop  offset="0.7207" style="stop-color:#09D348"/>
	<stop  offset="0.7818" style="stop-color:#00D23E"/>
	<stop  offset="0.8561" style="stop-color:#41DA3B"/>
	<stop  offset="0.9547" style="stop-color:#91E337"/>
	<stop  offset="1" style="stop-color:#B1E736"/>
</linearGradient>
<circle class="st2" cx="705.5" cy="1076" r="122.5"/>
<path class="st3" d="M1613,971.1L1613,971.1c-81.4,0-147.4-66-147.4-147.4v0c0-81.4,66-147.4,147.4-147.4h0
	c81.4,0,147.4,66,147.4,147.4v0C1760.4,905.1,1694.4,971.1,1613,971.1z"/>
<path class="st4" d="M819.9,479.1L819.9,479.1c-47.2,0-85.5-38.3-85.5-85.5v0c0-47.2,38.3-85.5,85.5-85.5h0
	c47.2,0,85.5,38.3,85.5,85.5v0C905.4,440.8,867.1,479.1,819.9,479.1z"/>
</svg>
