<?xml version="1.0" encoding="utf-8"?>
<!-- Generator: Adobe Illustrator 22.1.0, SVG Export Plug-In . SVG Version: 6.00 Build 0)  -->
<svg version="1.1" id="Layer_1" xmlns="http://www.w3.org/2000/svg" xmlns:xlink="http://www.w3.org/1999/xlink" x="0px" y="0px"
	 viewBox="0 0 1600 800" style="enable-background:new 0 0 1600 800;" xml:space="preserve">
<style type="text/css">
	.st0{fill:url(#SVGID_1_);}
	.st1{fill:url(#SVGID_2_);}
	.st2{fill:url(#SVGID_3_);}
	.st3{fill:url(#SVGID_4_);}
	.st4{fill:url(#SVGID_5_);}
	.st5{fill:url(#SVGID_6_);}
	.st6{fill:url(#SVGID_7_);}
	.st7{fill:url(#SVGID_8_);}
	.st8{fill:url(#SVGID_9_);}
	.st9{fill:url(#SVGID_10_);}
	.st10{fill:url(#SVGID_11_);}
</style>
<linearGradient id="SVGID_1_" gradientUnits="userSpaceOnUse" x1="1006.7693" y1="438.3289" x2="1111.764" y2="432.3292">
	<stop  offset="0" style="stop-color:#FF2A2A"/>
	<stop  offset="1" style="stop-color:#FF892A"/>
</linearGradient>
<polygon class="st0" points="1026.6,357.5 937.5,511.8 1115.7,511.8 "/>
<linearGradient id="SVGID_2_" gradientUnits="userSpaceOnUse" x1="1090.3866" y1="277.7253" x2="1113.3402" y2="306.0511">
	<stop  offset="0" style="stop-color:#FF2A2A"/>
	<stop  offset="1" style="stop-color:#FF892A"/>
</linearGradient>
<polygon class="st1" points="1105.7,264.3 1083.9,302 1127.4,302 "/>
<linearGradient id="SVGID_3_" gradientUnits="userSpaceOnUse" x1="1146.1056" y1="192.4361" x2="1169.0592" y2="220.7618">
	<stop  offset="0" style="stop-color:#FF6A00"/>
	<stop  offset="1" style="stop-color:#FFBE15"/>
</linearGradient>
<polygon class="st2" points="1161.4,179 1139.6,216.7 1183.1,216.7 "/>
<linearGradient id="SVGID_4_" gradientUnits="userSpaceOnUse" x1="1066.0354" y1="194.2866" x2="1079.7793" y2="211.2472">
	<stop  offset="0" style="stop-color:#FF2A2A"/>
	<stop  offset="1" style="stop-color:#FF892A"/>
</linearGradient>
<polygon class="st3" points="1075.2,186.3 1062.2,208.8 1088.2,208.8 "/>
<linearGradient id="SVGID_5_" gradientUnits="userSpaceOnUse" x1="402.2561" y1="510.1753" x2="450.4599" y2="569.6608">
	<stop  offset="0" style="stop-color:#FF2A2A"/>
	<stop  offset="1" style="stop-color:#FF892A"/>
</linearGradient>
<polygon class="st4" points="434.3,482 388.7,561.2 480,561.2 "/>
<linearGradient id="SVGID_6_" gradientUnits="userSpaceOnUse" x1="487.4167" y1="381.8541" x2="510.3704" y2="410.1799">
	<stop  offset="0" style="stop-color:#FF2A2A"/>
	<stop  offset="1" style="stop-color:#FF892A"/>
</linearGradient>
<polygon class="st5" points="502.7,368.4 480.9,406.1 524.5,406.1 "/>
<linearGradient id="SVGID_7_" gradientUnits="userSpaceOnUse" x1="388.1482" y1="302.8696" x2="326.6513" y2="283.3706">
	<stop  offset="0" style="stop-color:#FF6A00"/>
	<stop  offset="1" style="stop-color:#FFBE15"/>
</linearGradient>
<polygon class="st6" points="357.2,270.8 335.5,308.4 379,308.4 "/>
<linearGradient id="SVGID_8_" gradientUnits="userSpaceOnUse" x1="433.4612" y1="343.4347" x2="377.9639" y2="308.9364">
	<stop  offset="0" style="stop-color:#FF6A00"/>
	<stop  offset="1" style="stop-color:#FFBE15"/>
</linearGradient>
<polygon class="st7" points="421.3,320.6 408.3,343.1 434.3,343.1 "/>
<linearGradient id="SVGID_9_" gradientUnits="userSpaceOnUse" x1="590.7143" y1="157.4165" x2="535.2171" y2="122.9182">
	<stop  offset="0" style="stop-color:#FF6A00"/>
	<stop  offset="1" style="stop-color:#FF005C"/>
</linearGradient>
<polygon class="st8" points="578.6,134.5 565.5,157.1 591.6,157.1 "/>
<linearGradient id="SVGID_10_" gradientUnits="userSpaceOnUse" x1="523.7292" y1="98.0333" x2="487.1304" y2="75.2827">
	<stop  offset="0" style="stop-color:#FF6A00"/>
	<stop  offset="1" style="stop-color:#FF005C"/>
</linearGradient>
<polygon class="st9" points="515.7,82.9 507.1,97.8 524.3,97.8 "/>
<linearGradient id="SVGID_11_" gradientUnits="userSpaceOnUse" x1="1256.9829" y1="434.8585" x2="1220.3842" y2="412.1079">
	<stop  offset="0" style="stop-color:#FF6A00"/>
	<stop  offset="1" style="stop-color:#FF005C"/>
</linearGradient>
<polygon class="st10" points="1249,419.8 1240.4,434.7 1257.6,434.7 "/>
</svg>
